<svg id="eFzamBR1ilZ1" xmlns="http://www.w3.org/2000/svg" xmlns:xlink="http://www.w3.org/1999/xlink" viewBox="0 0 64 64" shape-rendering="geometricPrecision" text-rendering="geometricPrecision"><g><path d="M58.059,39.74L50,37.262v-2.133c1.849-1.816,3-4.339,3-7.129h1c2.757,0,5-2.243,5-5c0-1.627-.793-3.061-2-3.974L57,15C57,7.28,50.72,1,43,1s-14,6.28-14,14v4.026c-1.207.914-2,2.348-2,3.974s.793,3.061,2,3.974L29,29c0,1.654,1.346,3,3,3h1.841c.517,1.179,1.253,2.239,2.159,3.129v2.133l-8.059,2.479C24.985,40.65,23,43.34,23,46.432v1.943c-.793-1.194-1.802-2.253-3-3.114v-26.522c3.141-2.257,5-5.857,5-9.739c0-2.782-.979-5.495-2.757-7.639L21.943,1L16,1v9h-6v-9h-5.943l-.3.361C1.979,3.505,1,6.218,1,9c0,3.882,1.859,7.482,5,9.739v26.521C2.859,47.518,1,51.118,1,55c0,2.782.979,5.495,2.757,7.639l.3.361L10,63v-9h6v9h5.943l.3-.361c.274-.33.522-.677.757-1.033L23,63h40v-16.568c0-3.092-1.985-5.782-4.941-6.692Zm-6.521.087l-2.97,6.683-3.999-2.665l4.712-4.712l2.257.694ZM41.858,50h2.283l1.693,11h-5.669l1.693-11Zm2.607-2h-2.929l-.841-1.261L43,45.202l2.305,1.537L44.465,48ZM54,26h-1v-6h1c1.654,0,3,1.346,3,3s-1.346,3-3,3ZM31,15C31,8.383,36.383,3,43,3s12,5.383,12,12v3.101c-.323-.066-.658-.101-1-.101h-1-1c-2.957,0-5.737-1.151-7.828-3.242L43,13.586l-1.172,1.172C39.737,16.849,36.957,18,34,18h-1-1c-.342,0-.677.035-1,.101L31,15Zm1,5h1v6h-1c-1.654,0-3-1.346-3-3s1.346-3,3-3Zm0,10c-.552,0-1-.448-1-1v-1.101c.323.066.658.101,1,.101h1c0,.685.07,1.354.202,2L32,30Zm6.184,2c.414,1.161,1.514,2,2.816,2h4c1.654,0,3-1.346,3-3s-1.346-3-3-3h-4c-1.302,0-2.402.839-2.816,2h-2.921c-.166-.641-.263-1.308-.263-2v-8.037c3.003-.226,5.803-1.466,8-3.555c2.197,2.089,4.997,3.329,8,3.555L51,28c0,4.411-3.589,8-8,8-2.953,0-5.532-1.613-6.918-4h2.102ZM40,31c0-.552.448-1,1-1h4c.552,0,1,.448,1,1s-.448,1-1,1h-4c-.552,0-1-.448-1-1Zm3,7c1.822,0,3.527-.498,5-1.353v.939l-5,5-5-5v-.939C39.473,37.502,41.178,38,43,38Zm-6.281,1.133l4.712,4.712-3.999,2.665-2.97-6.683l2.257-.694ZM20.99,61L18,61v-7c0-1.103-.897-2-2-2h-6c-1.103,0-2,.897-2,2v7h-2.99C3.711,59.276,3,57.163,3,55c0-3.387,1.699-6.518,4.547-8.375L8,46.329v-28.658l-.453-.296C4.699,15.518,3,12.387,3,9c0-2.163.711-4.276,2.01-6L8,3v7c0,1.103.897,2,2,2h6c1.103,0,2-.897,2-2v-7h2.99C22.289,4.724,23,6.837,23,9c0,3.387-1.699,6.518-4.547,8.375L18,17.671v28.658l.453.296C21.301,48.482,23,51.613,23,55c0,2.163-.711,4.276-2.01,6ZM25,46.432c0-2.209,1.419-4.13,3.529-4.779l4.007-1.233l4.032,9.071l2.462-1.642.922,1.383L38.142,61L33,61v-12h-2v12h-6v-14.568ZM61,61h-6v-12h-2v12h-5.142l-1.81-11.769.922-1.383l2.462,1.642l4.032-9.071l4.007,1.233c2.11.649,3.529,2.57,3.529,4.779L61,61Z" fill="#3266a8" stroke="#3266a8"/><circle r="1" transform="translate(38 22)" fill="#3266a8"/><circle r="1" transform="translate(48 22)" fill="#3266a8"/><rect width="2" height="2" rx="0" ry="0" transform="translate(14 29)" fill="#3266a8"/><path d="M13,18c-1.654,0-3,1.346-3,3v6h2v-6c0-.552.448-1,1-1s1,.448,1,1v6h2v-6c0-1.654-1.346-3-3-3Z" fill="#3266a8"/><rect width="2" height="2" rx="0" ry="0" transform="translate(10 29)" fill="#3266a8"/><rect width="2" height="2" rx="0" ry="0" transform="translate(10 33)" fill="#3266a8"/><path d="M14,43c0,.552-.448,1-1,1s-1-.448-1-1v-6h-2v6c0,1.654,1.346,3,3,3s3-1.346,3-3v-6h-2v6Z" fill="#3266a8"/><rect width="2" height="2" rx="0" ry="0" transform="translate(14 33)" fill="#3266a8"/></g></svg>
