<?xml version="1.0" encoding="utf-8"?>
<svg viewBox="0 -17.626 89.315 83.689" shape-rendering="geometricPrecision" text-rendering="geometricPrecision" xmlns="http://www.w3.org/2000/svg">
  <g style="" transform="matrix(0.9913389682769774, 0, 0, 0.9913389682769774, 12.934653474906888, -16.17999291688193)">
    <path d="M 58.1 39.7 L 50 37.3 v -2.1 c 1.8 -1.8 3 -4.3 3 -7.1 h 1 c 2.8 0 5 -2.2 5 -5 c 0 -1.6 -0.8 -3.1 -2 -4 L 57 15 C 57 7.3 50.7 1 43 1 s -14 6.3 -14 14 v 4 c -1.2 0.9 -2 2.3 -2 4 s 0.8 3.1 2 4 L 29 29 c 0 1.7 1.3 3 3 3 h 1.8 c 0.5 1.2 1.3 2.2 2.2 3.1 v 2.1 l -8.1 2.5 C 25 40.6 23 43.3 23 46.4 v 1.9 c -0.8 -1.2 -1.8 -2.3 -3 -3.1 v -26.5 c 3.1 -2.3 5 -5.9 5 -9.7 c 0 -2.8 -1 -5.5 -2.8 -7.6 L 21.9 1 L 16 1 v 9 h -6 v -9 h -5.9 l -0.3 0.4 C 2 3.5 1 6.2 1 9 c 0 3.9 1.9 7.5 5 9.7 v 26.5 C 2.9 47.5 1 51.1 1 55 c 0 2.8 1 5.5 2.8 7.6 l 0.3 0.4 L 10 63 v -9 h 6 v 9 h 5.9 l 0.3 -0.4 c 0.3 -0.3 0.5 -0.7 0.8 -1 L 23 63 h 40 v -16.6 c 0 -3.1 -2 -5.8 -4.9 -6.7 Z m -6.5 0.1 l -3 6.7 l -4 -2.7 l 4.7 -4.7 l 2.3 0.7 Z M 41.9 50 h 2.3 l 1.7 11 h -5.7 l 1.7 -11 Z m 2.6 -2 h -2.9 l -0.8 -1.3 L 43 45.2 l 2.3 1.5 L 44.5 48 Z M 54 26 h -1 v -6 h 1 c 1.7 0 3 1.3 3 3 s -1.3 3 -3 3 Z M 31 15 C 31 8.4 36.4 3 43 3 s 12 5.4 12 12 v 3.1 c -0.3 -0.1 -0.7 -0.1 -1 -0.1 h -1 h -1 c -3 0 -5.7 -1.2 -7.8 -3.2 L 43 13.6 l -1.2 1.2 C 39.7 16.8 37 18 34 18 h -1 h -1 c -0.3 0 -0.7 0 -1 0.1 L 31 15 Z m 1 5 h 1 v 6 h -1 c -1.7 0 -3 -1.3 -3 -3 s 1.3 -3 3 -3 Z m 0 10 c -0.6 0 -1 -0.4 -1 -1 v -1.1 c 0.3 0.1 0.7 0.1 1 0.1 h 1 c 0 0.7 0.1 1.4 0.2 2 L 32 30 Z m 6.2 2 c 0.4 1.2 1.5 2 2.8 2 h 4 c 1.7 0 3 -1.3 3 -3 s -1.3 -3 -3 -3 h -4 c -1.3 0 -2.4 0.8 -2.8 2 h -2.9 c -0.2 -0.6 -0.3 -1.3 -0.3 -2 v -8 c 3 -0.2 5.8 -1.5 8 -3.6 c 2.2 2.1 5 3.3 8 3.6 L 51 28 c 0 4.4 -3.6 8 -8 8 c -3 0 -5.5 -1.6 -6.9 -4 h 2.1 Z M 40 31 c 0 -0.6 0.4 -1 1 -1 h 4 c 0.6 0 1 0.4 1 1 s -0.4 1 -1 1 h -4 c -0.6 0 -1 -0.4 -1 -1 Z m 3 7 c 1.8 0 3.5 -0.5 5 -1.4 v 0.9 l -5 5 l -5 -5 v -0.9 C 39.5 37.5 41.2 38 43 38 Z m -6.3 1.1 l 4.7 4.7 l -4 2.7 l -3 -6.7 l 2.3 -0.7 Z M 21 61 L 18 61 v -7 c 0 -1.1 -0.9 -2 -2 -2 h -6 c -1.1 0 -2 0.9 -2 2 v 7 h -3 C 3.7 59.3 3 57.2 3 55 c 0 -3.4 1.7 -6.5 4.5 -8.4 L 8 46.3 v -28.7 l -0.5 -0.3 C 4.7 15.5 3 12.4 3 9 c 0 -2.2 0.7 -4.3 2 -6 L 8 3 v 7 c 0 1.1 0.9 2 2 2 h 6 c 1.1 0 2 -0.9 2 -2 v -7 h 3 C 22.3 4.7 23 6.8 23 9 c 0 3.4 -1.7 6.5 -4.5 8.4 L 18 17.7 v 28.7 l 0.5 0.3 C 21.3 48.5 23 51.6 23 55 c 0 2.2 -0.7 4.3 -2 6 Z M 25 46.4 c 0 -2.2 1.4 -4.1 3.5 -4.8 l 4 -1.2 l 4 9.1 l 2.5 -1.6 l 0.9 1.4 L 38.1 61 L 33 61 v -12 h -2 v 12 h -6 v -14.6 Z M 61 61 h -6 v -12 h -2 v 12 h -5.1 l -1.8 -11.8 l 0.9 -1.4 l 2.5 1.6 l 4 -9.1 l 4 1.2 c 2.1 0.6 3.5 2.6 3.5 4.8 L 61 61 Z" fill="#007AFF" stroke="#007AFF"/>
    <circle r="1" transform="translate(38,22)" fill="#007AFF"/>
    <circle r="1" transform="translate(48,22)" fill="#007AFF"/>
    <rect width="2" height="2" rx="0" ry="0" transform="translate(14,29)" fill="#007AFF"/>
    <path d="M 13 18 c -1.7 0 -3 1.3 -3 3 v 6 h 2 v -6 c 0 -0.6 0.4 -1 1 -1 s 1 0.4 1 1 v 6 h 2 v -6 c 0 -1.7 -1.3 -3 -3 -3 Z" fill="#007AFF"/>
    <rect width="2" height="2" rx="0" ry="0" transform="translate(10,29)" fill="#007AFF"/>
    <rect width="2" height="2" rx="0" ry="0" transform="translate(10,33)" fill="#007AFF"/>
    <path d="M 14 43 c 0 0.6 -0.4 1 -1 1 s -1 -0.4 -1 -1 v -6 h -2 v 6 c 0 1.7 1.3 3 3 3 s 3 -1.3 3 -3 v -6 h -2 v 6 Z" fill="#007AFF"/>
    <rect width="2" height="2" rx="0" ry="0" transform="translate(14,33)" fill="#007AFF"/>
  </g>
  <text style="fill: rgb(0, 122, 255); font-family: 'MV Boli'; font-size: 14px; font-weight: 700; paint-order: fill; text-transform: capitalize; white-space: pre;" x="1.177" y="62.375" transform="matrix(0.9999999999999999, 0, 0, 0.9999999999999999, 0, 0)">Shop Sửa Xe</text>
</svg>