<?xml version="1.0" encoding="utf-8"?>
<svg xmlns="http://www.w3.org/2000/svg" viewBox="48.7307 79.2637 296.2695 94.1484" width="296.269px" height="94.1484px" preserveAspectRatio="none"><defs><clipPath id="1ef7db16e5"><path d="M 0 46 L 48 46 L 48 94.464844 L 0 94.464844 Z M 0 46 " clip-rule="nonzero"/></clipPath><clipPath id="fcca1f46f5"><path d="M 125 34 L 149.882812 34 L 149.882812 43 L 125 43 Z M 125 34 " clip-rule="nonzero"/></clipPath><clipPath id="ba20a22b38"><path d="M 14 0.0390625 L 126 0.0390625 L 126 81 L 14 81 Z M 14 0.0390625 " clip-rule="nonzero"/></clipPath></defs><g id="object-35"><g fill="#5271ff" fill-opacity="1" transform="matrix(1, 0, 0, 1, 48.730698, 79.17386)" id="object-0"><g transform="translate(65.868084, 73.546673)"><g><path d="M 19.359375 -19.03125 C 18.566406 -19.125 17.175781 -19.253906 15.1875 -19.421875 C 14.082031 -19.472656 13.195312 -19.5 12.53125 -19.5 C 11.664062 -19.5 10.851562 -19.472656 10.09375 -19.421875 L 10.09375 -24.984375 L 10.984375 -24.984375 C 12.953125 -24.984375 14.988281 -24.851562 17.09375 -24.59375 C 17.757812 -24.5 18.515625 -24.367188 19.359375 -24.203125 Z M 13.421875 -7.28125 C 13.421875 -7.789062 13.382812 -8.15625 13.3125 -8.375 C 13.25 -8.601562 13.128906 -8.757812 12.953125 -8.84375 C 12.785156 -8.9375 12.5 -9.003906 12.09375 -9.046875 L 7.6875 -9.59375 C 5.070312 -9.875 3.3125 -10.722656 2.40625 -12.140625 C 2 -12.734375 1.722656 -13.460938 1.578125 -14.328125 C 1.429688 -15.191406 1.359375 -16.242188 1.359375 -17.484375 C 1.359375 -20.140625 2.039062 -22.054688 3.40625 -23.234375 C 4.507812 -24.191406 6.234375 -24.753906 8.578125 -24.921875 L 8.578125 -17.703125 C 8.578125 -17.390625 8.585938 -17.125 8.609375 -16.90625 C 8.640625 -16.695312 8.691406 -16.53125 8.765625 -16.40625 C 8.835938 -16.257812 8.957031 -16.15625 9.125 -16.09375 C 9.289062 -16.039062 9.539062 -16.003906 9.875 -15.984375 L 14.828125 -15.375 C 15.859375 -15.226562 16.695312 -15.046875 17.34375 -14.828125 C 17.988281 -14.609375 18.539062 -14.273438 19 -13.828125 C 20.070312 -12.703125 20.609375 -10.703125 20.609375 -7.828125 C 20.609375 -4.785156 19.9375 -2.65625 18.59375 -1.4375 C 18 -0.882812 17.273438 -0.484375 16.421875 -0.234375 C 15.578125 0.015625 14.578125 0.175781 13.421875 0.25 Z M 11.53125 0.28125 C 9.132812 0.28125 6.90625 0.175781 4.84375 -0.03125 C 3.625 -0.15625 2.703125 -0.273438 2.078125 -0.390625 L 2.078125 -5.640625 C 3.492188 -5.515625 5.113281 -5.394531 6.9375 -5.28125 C 8.082031 -5.226562 8.894531 -5.203125 9.375 -5.203125 C 10.664062 -5.203125 11.515625 -5.238281 11.921875 -5.3125 L 11.921875 0.28125 Z M 11.53125 0.28125 "/></g></g></g><g fill="#5271ff" fill-opacity="1" transform="matrix(1, 0, 0, 1, 48.730698, 79.17386)" id="object-1"><g transform="translate(87.834558, 73.546673)"><g><path d="M 2.328125 -24.703125 L 9.515625 -24.703125 L 9.515625 0 L 2.328125 0 Z M 16.1875 -9.515625 L 11.015625 -9.515625 L 11.015625 -15.265625 L 16.1875 -15.265625 L 16.1875 -24.703125 L 23.375 -24.703125 L 23.375 0 L 16.1875 0 Z M 16.1875 -9.515625 "/></g></g></g><g fill="#5271ff" fill-opacity="1" transform="matrix(1, 0, 0, 1, 48.730698, 79.17386)" id="object-2"><g transform="translate(113.533898, 73.546673)"><g><path d="M 16.046875 -12.359375 C 16.046875 -14.429688 16.035156 -15.789062 16.015625 -16.4375 C 15.960938 -17.425781 15.828125 -18.140625 15.609375 -18.578125 C 15.398438 -19.023438 15.054688 -19.296875 14.578125 -19.390625 C 14.097656 -19.460938 13.414062 -19.5 12.53125 -19.5 C 11.5 -19.5 10.828125 -19.453125 10.515625 -19.359375 L 10.515625 -24.953125 C 10.734375 -24.972656 11.054688 -24.984375 11.484375 -24.984375 L 12.53125 -24.984375 C 15.207031 -24.984375 17.28125 -24.773438 18.75 -24.359375 C 20.226562 -23.941406 21.300781 -23.253906 21.96875 -22.296875 C 22.59375 -21.410156 22.984375 -20.25 23.140625 -18.8125 C 23.296875 -17.375 23.375 -15.222656 23.375 -12.359375 C 23.375 -9.835938 23.316406 -7.898438 23.203125 -6.546875 C 23.097656 -5.203125 22.832031 -4.085938 22.40625 -3.203125 C 21.925781 -2.191406 21.1875 -1.421875 20.1875 -0.890625 C 19.195312 -0.367188 17.816406 -0.0234375 16.046875 0.140625 Z M 12.53125 0.28125 C 9.03125 0.28125 6.515625 -0.0976562 4.984375 -0.859375 C 4.203125 -1.242188 3.582031 -1.757812 3.125 -2.40625 C 2.664062 -3.050781 2.332031 -3.851562 2.125 -4.8125 C 1.925781 -5.644531 1.800781 -6.601562 1.75 -7.6875 C 1.707031 -8.78125 1.6875 -10.335938 1.6875 -12.359375 C 1.6875 -14.867188 1.738281 -16.789062 1.84375 -18.125 C 1.957031 -19.46875 2.226562 -20.597656 2.65625 -21.515625 C 3.132812 -22.492188 3.863281 -23.242188 4.84375 -23.765625 C 5.820312 -24.296875 7.210938 -24.65625 9.015625 -24.84375 L 9.015625 -12.359375 C 9.015625 -10.941406 9.035156 -9.585938 9.078125 -8.296875 C 9.128906 -7.316406 9.253906 -6.597656 9.453125 -6.140625 C 9.660156 -5.679688 10.003906 -5.414062 10.484375 -5.34375 C 10.890625 -5.25 11.570312 -5.203125 12.53125 -5.203125 C 13.507812 -5.203125 14.179688 -5.238281 14.546875 -5.3125 L 14.546875 0.25 C 14.328125 0.269531 14.003906 0.28125 13.578125 0.28125 Z M 12.53125 0.28125 "/></g></g></g><g fill="#5271ff" fill-opacity="1" transform="matrix(1, 0, 0, 1, 48.730698, 79.17386)" id="object-3"><g transform="translate(138.587163, 73.546673)"><g><path d="M 2.328125 -24.703125 L 9.515625 -24.703125 L 9.515625 0 L 2.328125 0 Z M 11.015625 -13.171875 L 11.890625 -13.171875 C 12.648438 -13.171875 13.210938 -13.203125 13.578125 -13.265625 C 13.953125 -13.328125 14.25 -13.46875 14.46875 -13.6875 C 14.6875 -13.875 14.820312 -14.148438 14.875 -14.515625 C 14.9375 -14.890625 14.96875 -15.445312 14.96875 -16.1875 C 14.96875 -16.9375 14.9375 -17.492188 14.875 -17.859375 C 14.820312 -18.234375 14.6875 -18.53125 14.46875 -18.75 C 14.25 -18.9375 13.945312 -19.054688 13.5625 -19.109375 C 13.1875 -19.171875 12.628906 -19.203125 11.890625 -19.203125 L 11.015625 -19.203125 L 11.015625 -24.703125 L 14 -24.703125 C 15.769531 -24.703125 17.210938 -24.523438 18.328125 -24.171875 C 19.441406 -23.828125 20.285156 -23.296875 20.859375 -22.578125 C 21.410156 -21.910156 21.78125 -21.066406 21.96875 -20.046875 C 22.164062 -19.035156 22.265625 -17.75 22.265625 -16.1875 C 22.265625 -14.707031 22.171875 -13.472656 21.984375 -12.484375 C 21.804688 -11.503906 21.457031 -10.679688 20.9375 -10.015625 C 20.332031 -9.253906 19.472656 -8.675781 18.359375 -8.28125 C 17.253906 -7.882812 15.800781 -7.6875 14 -7.6875 L 11.015625 -7.6875 Z M 11.015625 -13.171875 "/></g></g></g><g fill="#5271ff" fill-opacity="1" transform="matrix(1, 0, 0, 1, 48.730698, 79.17386)" id="object-5"><g transform="translate(171.070262, 73.546673)"><g><path d="M 19.359375 -19.03125 C 18.566406 -19.125 17.175781 -19.253906 15.1875 -19.421875 C 14.082031 -19.472656 13.195312 -19.5 12.53125 -19.5 C 11.664062 -19.5 10.851562 -19.472656 10.09375 -19.421875 L 10.09375 -24.984375 L 10.984375 -24.984375 C 12.953125 -24.984375 14.988281 -24.851562 17.09375 -24.59375 C 17.757812 -24.5 18.515625 -24.367188 19.359375 -24.203125 Z M 13.421875 -7.28125 C 13.421875 -7.789062 13.382812 -8.15625 13.3125 -8.375 C 13.25 -8.601562 13.128906 -8.757812 12.953125 -8.84375 C 12.785156 -8.9375 12.5 -9.003906 12.09375 -9.046875 L 7.6875 -9.59375 C 5.070312 -9.875 3.3125 -10.722656 2.40625 -12.140625 C 2 -12.734375 1.722656 -13.460938 1.578125 -14.328125 C 1.429688 -15.191406 1.359375 -16.242188 1.359375 -17.484375 C 1.359375 -20.140625 2.039062 -22.054688 3.40625 -23.234375 C 4.507812 -24.191406 6.234375 -24.753906 8.578125 -24.921875 L 8.578125 -17.703125 C 8.578125 -17.390625 8.585938 -17.125 8.609375 -16.90625 C 8.640625 -16.695312 8.691406 -16.53125 8.765625 -16.40625 C 8.835938 -16.257812 8.957031 -16.15625 9.125 -16.09375 C 9.289062 -16.039062 9.539062 -16.003906 9.875 -15.984375 L 14.828125 -15.375 C 15.859375 -15.226562 16.695312 -15.046875 17.34375 -14.828125 C 17.988281 -14.609375 18.539062 -14.273438 19 -13.828125 C 20.070312 -12.703125 20.609375 -10.703125 20.609375 -7.828125 C 20.609375 -4.785156 19.9375 -2.65625 18.59375 -1.4375 C 18 -0.882812 17.273438 -0.484375 16.421875 -0.234375 C 15.578125 0.015625 14.578125 0.175781 13.421875 0.25 Z M 11.53125 0.28125 C 9.132812 0.28125 6.90625 0.175781 4.84375 -0.03125 C 3.625 -0.15625 2.703125 -0.273438 2.078125 -0.390625 L 2.078125 -5.640625 C 3.492188 -5.515625 5.113281 -5.394531 6.9375 -5.28125 C 8.082031 -5.226562 8.894531 -5.203125 9.375 -5.203125 C 10.664062 -5.203125 11.515625 -5.238281 11.921875 -5.3125 L 11.921875 0.28125 Z M 11.53125 0.28125 "/></g></g></g><g fill="#5271ff" fill-opacity="1" transform="matrix(1, 0, 0, 1, 48.730698, 79.17386)" id="object-6"><g transform="translate(193.036736, 73.546673)"><g><path d="M 28.15625 -26.609375 C 28.15625 -25.722656 28.082031 -24.96875 27.9375 -24.34375 C 27.789062 -23.71875 27.523438 -23.179688 27.140625 -22.734375 C 26.691406 -22.203125 26.097656 -21.8125 25.359375 -21.5625 C 24.628906 -21.3125 23.691406 -21.1875 22.546875 -21.1875 L 22.546875 -11.28125 C 22.546875 -8.925781 22.5 -7.148438 22.40625 -5.953125 C 22.3125 -4.765625 22.046875 -3.757812 21.609375 -2.9375 C 21.128906 -2.007812 20.398438 -1.289062 19.421875 -0.78125 C 18.441406 -0.28125 17.09375 0.0351562 15.375 0.171875 L 15.375 -24.703125 L 22.4375 -24.703125 C 23.300781 -24.703125 23.890625 -24.878906 24.203125 -25.234375 C 24.316406 -25.378906 24.382812 -25.550781 24.40625 -25.75 C 24.4375 -25.957031 24.453125 -26.242188 24.453125 -26.609375 Z M 13.21875 -5.203125 C 13.40625 -5.203125 13.617188 -5.226562 13.859375 -5.28125 L 13.859375 0.25 C 13.691406 0.269531 13.453125 0.28125 13.140625 0.28125 L 12.390625 0.28125 C 9.878906 0.28125 7.941406 0.078125 6.578125 -0.328125 C 5.210938 -0.734375 4.207031 -1.390625 3.5625 -2.296875 C 2.957031 -3.140625 2.582031 -4.207031 2.4375 -5.5 C 2.289062 -6.789062 2.21875 -8.71875 2.21875 -11.28125 L 2.21875 -24.703125 L 9.40625 -24.703125 L 9.40625 -9.84375 C 9.40625 -8.957031 9.429688 -8.101562 9.484375 -7.28125 C 9.523438 -6.632812 9.628906 -6.164062 9.796875 -5.875 C 9.960938 -5.59375 10.253906 -5.414062 10.671875 -5.34375 C 11.023438 -5.25 11.597656 -5.203125 12.390625 -5.203125 Z M 11.3125 -28.515625 C 11.3125 -28.941406 11.394531 -29.253906 11.5625 -29.453125 C 11.726562 -29.660156 12.113281 -30.003906 12.71875 -30.484375 C 13 -30.703125 13.1875 -30.890625 13.28125 -31.046875 C 13.382812 -31.203125 13.4375 -31.445312 13.4375 -31.78125 C 13.4375 -32.164062 13.363281 -32.441406 13.21875 -32.609375 C 13.070312 -32.773438 12.820312 -32.878906 12.46875 -32.921875 C 12.125 -32.972656 11.570312 -33 10.8125 -33 L 10.8125 -36.515625 C 12.726562 -36.566406 14.09375 -36.457031 14.90625 -36.1875 C 16.269531 -35.757812 16.953125 -34.660156 16.953125 -32.890625 C 16.953125 -32.117188 16.914062 -31.539062 16.84375 -31.15625 C 16.769531 -30.78125 16.648438 -30.460938 16.484375 -30.203125 C 16.335938 -30.003906 16.140625 -29.796875 15.890625 -29.578125 C 15.640625 -29.367188 15.46875 -29.226562 15.375 -29.15625 C 15.351562 -29.132812 15.273438 -29.066406 15.140625 -28.953125 C 15.003906 -28.847656 14.898438 -28.726562 14.828125 -28.59375 C 14.753906 -28.46875 14.71875 -28.332031 14.71875 -28.1875 L 14.71875 -26.96875 L 11.3125 -26.96875 Z M 11.3125 -28.515625 "/></g></g></g><g fill="#5271ff" fill-opacity="1" transform="matrix(1, 0, 0, 1, 48.730698, 79.17386)" id="object-7"><g transform="translate(217.80285, 73.546673)"><g><path d="M 7.9375 -24.703125 L 8.546875 -24.703125 L 11.375 -14.859375 L 7.25 0 L 0.078125 0 Z M 16.015625 -4.375 L 10.015625 -4.375 L 11.53125 -9.90625 L 14.390625 -9.90625 L 10.15625 -24.703125 L 16.734375 -24.703125 L 24.59375 0 L 17.265625 0 Z M 16.015625 -4.375 "/></g></g></g><g fill="#5271ff" fill-opacity="1" transform="matrix(1, 0, 0, 1, 48.730698, 79.17386)" id="object-9"><g transform="translate(251.793451, 73.546673)"><g><path d="M 0.328125 -24.703125 L 8.46875 -24.703125 L 24.171875 0 L 15.984375 0 Z M 13.46875 -19.671875 L 16.1875 -24.703125 L 24.0625 -24.703125 L 17.234375 -13.71875 Z M 7.078125 -11.203125 L 10.8125 -5.28125 L 8.046875 0 L 0.171875 0 Z M 7.078125 -11.203125 "/></g></g></g><g fill="#5271ff" fill-opacity="1" transform="matrix(1, 0, 0, 1, 48.730698, 79.17386)" id="object-10"><g transform="translate(276.128857, 73.546673)"><g><path d="M 2.328125 -24.703125 L 9.515625 -24.703125 L 9.515625 0 L 2.328125 0 Z M 11.015625 -24.703125 L 20.140625 -24.703125 L 20.140625 -19.203125 L 11.015625 -19.203125 Z M 11.015625 -15.21875 L 18.453125 -15.21875 L 18.453125 -9.734375 L 11.015625 -9.734375 Z M 11.015625 -5.5 L 20.140625 -5.5 L 20.140625 0 L 11.015625 0 Z M 11.015625 -5.5 "/></g></g></g><g fill="#5271ff" fill-opacity="1" transform="matrix(1, 0, 0, 1, 48.730698, 79.17386)" id="object-11"><g transform="translate(65.868084, 91.965839)"><g><path d="M 11.71875 -7.1875 L 9.359375 0 L 7.578125 0 L 6 -4.859375 L 4.359375 0 L 2.59375 0 L 0.21875 -7.1875 L 1.953125 -7.1875 L 3.578125 -2.140625 L 5.265625 -7.1875 L 6.8125 -7.1875 L 8.453125 -2.09375 L 10.125 -7.1875 Z M 11.71875 -7.1875 "/></g></g></g><g fill="#5271ff" fill-opacity="1" transform="matrix(1, 0, 0, 1, 48.730698, 79.17386)" id="object-12"><g transform="translate(82.150328, 91.965839)"><g><path d="M 6.421875 -1.328125 L 6.421875 0 L 0.859375 0 L 0.859375 -7.1875 L 6.28125 -7.1875 L 6.28125 -5.84375 L 2.5 -5.84375 L 2.5 -4.296875 L 5.84375 -4.296875 L 5.84375 -3 L 2.5 -3 L 2.5 -1.328125 Z M 6.421875 -1.328125 "/></g></g></g><g fill="#5271ff" fill-opacity="1" transform="matrix(1, 0, 0, 1, 48.730698, 79.17386)" id="object-14"><g transform="translate(100.641418, 91.965839)"><g><path d="M 5.4375 0 L 4.046875 -2 L 2.515625 -2 L 2.515625 0 L 0.859375 0 L 0.859375 -7.1875 L 3.96875 -7.1875 C 4.601562 -7.1875 5.15625 -7.078125 5.625 -6.859375 C 6.09375 -6.648438 6.453125 -6.347656 6.703125 -5.953125 C 6.953125 -5.566406 7.078125 -5.109375 7.078125 -4.578125 C 7.078125 -4.046875 6.945312 -3.585938 6.6875 -3.203125 C 6.4375 -2.816406 6.078125 -2.519531 5.609375 -2.3125 L 7.21875 0 Z M 5.40625 -4.578125 C 5.40625 -4.984375 5.273438 -5.289062 5.015625 -5.5 C 4.753906 -5.71875 4.375 -5.828125 3.875 -5.828125 L 2.515625 -5.828125 L 2.515625 -3.328125 L 3.875 -3.328125 C 4.375 -3.328125 4.753906 -3.4375 5.015625 -3.65625 C 5.273438 -3.875 5.40625 -4.179688 5.40625 -4.578125 Z M 5.40625 -4.578125 "/></g></g></g><g fill="#5271ff" fill-opacity="1" transform="matrix(1, 0, 0, 1, 48.730698, 79.17386)" id="object-15"><g transform="translate(112.53342, 91.965839)"><g><path d="M 6.421875 -1.328125 L 6.421875 0 L 0.859375 0 L 0.859375 -7.1875 L 6.28125 -7.1875 L 6.28125 -5.84375 L 2.5 -5.84375 L 2.5 -4.296875 L 5.84375 -4.296875 L 5.84375 -3 L 2.5 -3 L 2.5 -1.328125 Z M 6.421875 -1.328125 "/></g></g></g><g fill="#5271ff" fill-opacity="1" transform="matrix(1, 0, 0, 1, 48.730698, 79.17386)" id="object-16"><g transform="translate(123.768939, 91.965839)"><g><path d="M 3.96875 -7.1875 C 4.601562 -7.1875 5.15625 -7.078125 5.625 -6.859375 C 6.09375 -6.648438 6.453125 -6.347656 6.703125 -5.953125 C 6.953125 -5.566406 7.078125 -5.109375 7.078125 -4.578125 C 7.078125 -4.046875 6.953125 -3.582031 6.703125 -3.1875 C 6.453125 -2.800781 6.09375 -2.503906 5.625 -2.296875 C 5.15625 -2.085938 4.601562 -1.984375 3.96875 -1.984375 L 2.515625 -1.984375 L 2.515625 0 L 0.859375 0 L 0.859375 -7.1875 Z M 3.875 -3.34375 C 4.375 -3.34375 4.753906 -3.445312 5.015625 -3.65625 C 5.273438 -3.875 5.40625 -4.179688 5.40625 -4.578125 C 5.40625 -4.984375 5.273438 -5.289062 5.015625 -5.5 C 4.753906 -5.71875 4.375 -5.828125 3.875 -5.828125 L 2.515625 -5.828125 L 2.515625 -3.34375 Z M 3.875 -3.34375 "/></g></g></g><g fill="#5271ff" fill-opacity="1" transform="matrix(1, 0, 0, 1, 48.730698, 79.17386)" id="object-17"><g transform="translate(135.630171, 91.965839)"><g><path d="M 5.578125 -1.546875 L 2.25 -1.546875 L 1.609375 0 L -0.09375 0 L 3.109375 -7.1875 L 4.75 -7.1875 L 7.96875 0 L 6.21875 0 Z M 5.0625 -2.796875 L 3.921875 -5.546875 L 2.78125 -2.796875 Z M 5.0625 -2.796875 "/></g></g></g><g fill="#5271ff" fill-opacity="1" transform="matrix(1, 0, 0, 1, 48.730698, 79.17386)" id="object-18"><g transform="translate(147.840161, 91.965839)"><g><path d="M 0.859375 -7.1875 L 2.515625 -7.1875 L 2.515625 0 L 0.859375 0 Z M 0.859375 -7.1875 "/></g></g></g><g fill="#5271ff" fill-opacity="1" transform="matrix(1, 0, 0, 1, 48.730698, 79.17386)" id="object-19"><g transform="translate(155.557325, 91.965839)"><g><path d="M 5.4375 0 L 4.046875 -2 L 2.515625 -2 L 2.515625 0 L 0.859375 0 L 0.859375 -7.1875 L 3.96875 -7.1875 C 4.601562 -7.1875 5.15625 -7.078125 5.625 -6.859375 C 6.09375 -6.648438 6.453125 -6.347656 6.703125 -5.953125 C 6.953125 -5.566406 7.078125 -5.109375 7.078125 -4.578125 C 7.078125 -4.046875 6.945312 -3.585938 6.6875 -3.203125 C 6.4375 -2.816406 6.078125 -2.519531 5.609375 -2.3125 L 7.21875 0 Z M 5.40625 -4.578125 C 5.40625 -4.984375 5.273438 -5.289062 5.015625 -5.5 C 4.753906 -5.71875 4.375 -5.828125 3.875 -5.828125 L 2.515625 -5.828125 L 2.515625 -3.328125 L 3.875 -3.328125 C 4.375 -3.328125 4.753906 -3.4375 5.015625 -3.65625 C 5.273438 -3.875 5.40625 -4.179688 5.40625 -4.578125 Z M 5.40625 -4.578125 "/></g></g></g><g fill="#5271ff" fill-opacity="1" transform="matrix(1, 0, 0, 1, 48.730698, 79.17386)" id="object-20"><g transform="translate(167.449329, 91.965839)"><g><path d="M 1.359375 -1.90625 C 1.640625 -1.90625 1.875 -1.8125 2.0625 -1.625 C 2.25 -1.445312 2.34375 -1.210938 2.34375 -0.921875 C 2.34375 -0.785156 2.320312 -0.648438 2.28125 -0.515625 C 2.25 -0.378906 2.175781 -0.171875 2.0625 0.109375 L 1.484375 1.578125 L 0.46875 1.578125 L 0.90625 -0.046875 C 0.738281 -0.117188 0.601562 -0.226562 0.5 -0.375 C 0.40625 -0.53125 0.359375 -0.710938 0.359375 -0.921875 C 0.359375 -1.210938 0.453125 -1.445312 0.640625 -1.625 C 0.828125 -1.8125 1.066406 -1.90625 1.359375 -1.90625 Z M 1.359375 -1.90625 "/></g></g></g><g fill="#5271ff" fill-opacity="1" transform="matrix(1, 0, 0, 1, 48.730698, 79.17386)" id="object-22"><g transform="translate(181.74507, 91.965839)"><g><path d="M 4.296875 -2.546875 L 4.296875 0 L 2.640625 0 L 2.640625 -2.5625 L -0.140625 -7.1875 L 1.625 -7.1875 L 3.546875 -4 L 5.46875 -7.1875 L 7.09375 -7.1875 Z M 4.296875 -2.546875 "/></g></g></g><g fill="#5271ff" fill-opacity="1" transform="matrix(1, 0, 0, 1, 48.730698, 79.17386)" id="object-23"><g transform="translate(193.031875, 91.965839)"><g><path d="M 4.328125 0.125 C 3.585938 0.125 2.914062 -0.0351562 2.3125 -0.359375 C 1.71875 -0.679688 1.25 -1.125 0.90625 -1.6875 C 0.570312 -2.25 0.40625 -2.882812 0.40625 -3.59375 C 0.40625 -4.300781 0.570312 -4.9375 0.90625 -5.5 C 1.25 -6.0625 1.71875 -6.503906 2.3125 -6.828125 C 2.914062 -7.148438 3.585938 -7.3125 4.328125 -7.3125 C 5.078125 -7.3125 5.75 -7.148438 6.34375 -6.828125 C 6.9375 -6.503906 7.40625 -6.0625 7.75 -5.5 C 8.09375 -4.9375 8.265625 -4.300781 8.265625 -3.59375 C 8.265625 -2.882812 8.09375 -2.25 7.75 -1.6875 C 7.40625 -1.125 6.9375 -0.679688 6.34375 -0.359375 C 5.75 -0.0351562 5.078125 0.125 4.328125 0.125 Z M 4.328125 -1.296875 C 4.753906 -1.296875 5.140625 -1.390625 5.484375 -1.578125 C 5.828125 -1.773438 6.09375 -2.046875 6.28125 -2.390625 C 6.476562 -2.742188 6.578125 -3.144531 6.578125 -3.59375 C 6.578125 -4.039062 6.476562 -4.4375 6.28125 -4.78125 C 6.09375 -5.132812 5.828125 -5.40625 5.484375 -5.59375 C 5.140625 -5.789062 4.753906 -5.890625 4.328125 -5.890625 C 3.910156 -5.890625 3.53125 -5.789062 3.1875 -5.59375 C 2.84375 -5.40625 2.570312 -5.132812 2.375 -4.78125 C 2.175781 -4.4375 2.078125 -4.039062 2.078125 -3.59375 C 2.078125 -3.144531 2.175781 -2.742188 2.375 -2.390625 C 2.570312 -2.046875 2.84375 -1.773438 3.1875 -1.578125 C 3.53125 -1.390625 3.910156 -1.296875 4.328125 -1.296875 Z M 4.328125 -1.296875 "/></g></g></g><g fill="#5271ff" fill-opacity="1" transform="matrix(1, 0, 0, 1, 48.730698, 79.17386)" id="object-24"><g transform="translate(206.041952, 91.965839)"><g><path d="M 4.046875 0.125 C 3.015625 0.125 2.210938 -0.15625 1.640625 -0.71875 C 1.078125 -1.289062 0.796875 -2.101562 0.796875 -3.15625 L 0.796875 -7.1875 L 2.453125 -7.1875 L 2.453125 -3.21875 C 2.453125 -1.9375 2.988281 -1.296875 4.0625 -1.296875 C 4.570312 -1.296875 4.960938 -1.453125 5.234375 -1.765625 C 5.515625 -2.078125 5.65625 -2.5625 5.65625 -3.21875 L 5.65625 -7.1875 L 7.296875 -7.1875 L 7.296875 -3.15625 C 7.296875 -2.101562 7.007812 -1.289062 6.4375 -0.71875 C 5.863281 -0.15625 5.066406 0.125 4.046875 0.125 Z M 4.046875 0.125 "/></g></g></g><g fill="#5271ff" fill-opacity="1" transform="matrix(1, 0, 0, 1, 48.730698, 79.17386)" id="object-26"><g transform="translate(225.733189, 91.965839)"><g><path d="M 5.4375 0 L 4.046875 -2 L 2.515625 -2 L 2.515625 0 L 0.859375 0 L 0.859375 -7.1875 L 3.96875 -7.1875 C 4.601562 -7.1875 5.15625 -7.078125 5.625 -6.859375 C 6.09375 -6.648438 6.453125 -6.347656 6.703125 -5.953125 C 6.953125 -5.566406 7.078125 -5.109375 7.078125 -4.578125 C 7.078125 -4.046875 6.945312 -3.585938 6.6875 -3.203125 C 6.4375 -2.816406 6.078125 -2.519531 5.609375 -2.3125 L 7.21875 0 Z M 5.40625 -4.578125 C 5.40625 -4.984375 5.273438 -5.289062 5.015625 -5.5 C 4.753906 -5.71875 4.375 -5.828125 3.875 -5.828125 L 2.515625 -5.828125 L 2.515625 -3.328125 L 3.875 -3.328125 C 4.375 -3.328125 4.753906 -3.4375 5.015625 -3.65625 C 5.273438 -3.875 5.40625 -4.179688 5.40625 -4.578125 Z M 5.40625 -4.578125 "/></g></g></g><g fill="#5271ff" fill-opacity="1" transform="matrix(1, 0, 0, 1, 48.730698, 79.17386)" id="object-27"><g transform="translate(237.625194, 91.965839)"><g><path d="M 6.421875 -1.328125 L 6.421875 0 L 0.859375 0 L 0.859375 -7.1875 L 6.28125 -7.1875 L 6.28125 -5.84375 L 2.5 -5.84375 L 2.5 -4.296875 L 5.84375 -4.296875 L 5.84375 -3 L 2.5 -3 L 2.5 -1.328125 Z M 6.421875 -1.328125 "/></g></g></g><g fill="#5271ff" fill-opacity="1" transform="matrix(1, 0, 0, 1, 48.730698, 79.17386)" id="object-28"><g transform="translate(248.860713, 91.965839)"><g><path d="M 0.859375 -7.1875 L 2.515625 -7.1875 L 2.515625 -1.359375 L 6.125 -1.359375 L 6.125 0 L 0.859375 0 Z M 0.859375 -7.1875 "/></g></g></g><g fill="#5271ff" fill-opacity="1" transform="matrix(1, 0, 0, 1, 48.730698, 79.17386)" id="object-29"><g transform="translate(259.408974, 91.965839)"><g><path d="M 5.578125 -1.546875 L 2.25 -1.546875 L 1.609375 0 L -0.09375 0 L 3.109375 -7.1875 L 4.75 -7.1875 L 7.96875 0 L 6.21875 0 Z M 5.0625 -2.796875 L 3.921875 -5.546875 L 2.78125 -2.796875 Z M 5.0625 -2.796875 "/></g></g></g><g fill="#5271ff" fill-opacity="1" transform="matrix(1, 0, 0, 1, 48.730698, 79.17386)" id="object-30"><g transform="translate(271.618964, 91.965839)"><g><path d="M 5.375 0 L 3.640625 -2.5 L 1.9375 0 L 0.03125 0 L 2.6875 -3.65625 L 0.171875 -7.1875 L 2.046875 -7.1875 L 3.703125 -4.859375 L 5.328125 -7.1875 L 7.125 -7.1875 L 4.625 -3.71875 L 7.296875 0 Z M 5.375 0 "/></g></g></g><path fill="#5271ff" d="M 72.754 141.912 C 76.883 141.912 80.231 145.26 80.231 149.389 C 80.231 153.518 76.883 156.861 72.754 156.861 C 68.625 156.861 65.278 153.518 65.278 149.389 C 65.278 145.26 68.625 141.912 72.754 141.912" fill-opacity="1" fill-rule="nonzero" id="object-31"/><g clip-path="url(#1ef7db16e5)" transform="matrix(1, 0, 0, 1, 48.730698, 79.17386)" id="object-32"><path fill="#5271ff" d="M 7.59375 70.214844 C 7.59375 61.140625 14.949219 53.78125 24.023438 53.78125 C 33.097656 53.78125 40.453125 61.140625 40.453125 70.214844 C 40.453125 79.289062 33.097656 86.644531 24.023438 86.644531 C 14.949219 86.644531 7.59375 79.289062 7.59375 70.214844 Z M 0 70.214844 C 0 83.484375 10.753906 94.238281 24.023438 94.238281 C 35.082031 94.238281 44.386719 86.765625 47.183594 76.59375 C 45.207031 74.167969 43.621094 70.289062 43.855469 64.125 L 43.871094 64.023438 C 43.878906 63.988281 44.636719 60.695312 37.875 57.738281 C 35.277344 56.597656 34.199219 54.765625 33.058594 52.824219 C 31.761719 50.613281 30.359375 48.230469 26.464844 46.3125 C 25.660156 46.230469 24.847656 46.1875 24.023438 46.1875 C 10.753906 46.1875 0 56.945312 0 70.214844 " fill-opacity="1" fill-rule="nonzero"/></g><g clip-path="url(#fcca1f46f5)" transform="matrix(1, 0, 0, 1, 48.730698, 79.17386)" id="object-33"><path fill="#5271ff" d="M 149.125 34.621094 L 149.882812 42.199219 L 125.480469 42.199219 L 128.28125 38.109375 C 138.667969 37.121094 149.125 34.621094 149.125 34.621094 " fill-opacity="1" fill-rule="nonzero"/></g><g clip-path="url(#ba20a22b38)" transform="matrix(1, 0, 0, 1, 48.730698, 79.17386)" id="object-34"><path fill="#5271ff" d="M 48.25 46.824219 L 62.449219 33.34375 L 63.210938 33.972656 L 49.085938 47.882812 Z M 49.914062 53.484375 C 50.773438 53.042969 51.902344 51.988281 51.207031 49.550781 L 68.59375 32.832031 L 69.246094 33.785156 L 67.425781 35.984375 L 68.707031 36.550781 C 63.777344 46.027344 55.730469 52.871094 51.265625 56.175781 C 50.863281 55.257812 50.417969 54.355469 49.914062 53.484375 Z M 51.621094 57.042969 C 56.136719 53.726562 64.46875 46.703125 69.539062 36.921875 L 71.023438 37.574219 C 69.84375 40.492188 65.132812 50.097656 51.863281 57.671875 C 51.785156 57.460938 51.707031 57.25 51.621094 57.042969 Z M 53.972656 80.167969 C 53.972656 80.167969 55.648438 68.75 52.171875 58.539062 C 65.703125 50.863281 70.585938 41.054688 71.851562 37.941406 L 73.945312 38.867188 L 76.140625 35.757812 C 74.246094 33.332031 73.867188 29.769531 73.867188 29.769531 L 71.140625 32.5 L 69.96875 31.507812 L 73.792969 27.832031 L 74.019531 23.328125 L 69.179688 28.09375 L 68.5625 27.539062 L 75.234375 21.207031 C 75.234375 21.207031 71.746094 35.378906 84.023438 42.199219 L 88.796875 38.410156 L 124.34375 42.199219 C 126.03125 39.464844 125.546875 35.921875 123.195312 33.730469 C 119.53125 30.320312 113.550781 25.265625 106.246094 20.972656 C 96.894531 15.476562 84.917969 22.21875 84.992188 33.066406 C 84.992188 33.304688 85 33.546875 85.007812 33.785156 C 85.007812 33.785156 83.191406 32.347656 83.570312 22.570312 C 83.570312 22.570312 87.480469 20.222656 83.519531 17.644531 C 83.519531 17.644531 87.886719 12.035156 94.859375 13.097656 C 94.859375 13.097656 98.421875 19.007812 104.335938 15.296875 C 104.335938 15.296875 101.074219 15.066406 99.332031 13.550781 L 109.449219 13.550781 C 110.683594 13.550781 111.6875 12.550781 111.6875 11.316406 C 111.6875 10.082031 110.683594 9.082031 109.449219 9.082031 L 98.5 9.082031 L 98.5 3.167969 L 99.941406 3.167969 C 100.1875 4.210938 100.996094 4.980469 101.964844 4.980469 C 103.128906 4.980469 104.070312 3.882812 104.070312 2.535156 C 104.070312 1.183594 103.128906 0.0898438 101.964844 0.0898438 C 101 0.0898438 100.195312 0.851562 99.949219 1.882812 L 97.742188 1.882812 L 96.453125 9.003906 C 96.453125 9.003906 87.507812 8.171875 81.296875 14.992188 L 79.019531 12.71875 L 72.707031 18.929688 C 71.003906 17.828125 65.453125 14.832031 57.574219 16.585938 C 57.574219 16.585938 54.449219 23.019531 57.574219 29.011719 L 61.4375 29.011719 L 64.144531 27.351562 L 44.992188 46.1875 C 44.992188 46.1875 44.113281 44.867188 42.71875 45.984375 C 28.285156 37.089844 14.070312 42.769531 14.070312 42.769531 C 36.125 45.269531 30.78125 54.136719 38.058594 57.320312 C 45.332031 60.503906 44.3125 64.140625 44.3125 64.140625 C 43.742188 79.144531 53.972656 80.167969 53.972656 80.167969 " fill-opacity="1" fill-rule="nonzero"/></g></g></svg>